<svg width="779.11" height="779.11" xmlns="http://www.w3.org/2000/svg">

	<g>
		<title>background</title>
		<rect fill="none" id="canvas_background" height="402" width="582" y="-1" x="-1"/>
	</g>
	<g>
		<title>Layer 1</title>
		<g id="svg_1">
			<g id="svg_2">
				<path fill="#ffffff" id="svg_3" d="m662.914,632.35101l-132.84399,0l-275.59601,0c-11.49001,0 -20.806,9.315 -20.806,20.80597l0,12.80505c0,11.48999 9.315,20.81 20.806,20.81l275.59796,0l132.84406,0l68.81995,0l0,-54.41803l-68.82196,-0.00299l0,0z"/>
				<circle fill="#ffffff" id="svg_4" r="115.19" cy="189.625" cx="211.187"/>
				<path fill="#ffffff" id="svg_5" d="m492.23401,472.147l-263.96899,-0.146l-6.25,-0.02002l0,-30.63199l-0.21701,-25.63998c0,-61.24503 -49.651,-110.89801 -110.89899,-110.89801c-2.075,0 -4.136,0.07001 -6.184,0.18201l-0.156,-0.18201c-57.74601,0.00198 -104.55901,46.814 -104.55901,104.561l0,295.30304l222.015,0l0,-125.79907l-2.937,-0.23102c-0.209,-0.01898 -0.261,0.00201 -0.39101,0.00201c-15.021,0 -29.41699,-6.32397 -39.562,-17.39899l-90.112,-98.36301c-2.873,-3.13501 -2.66,-8.00299 0.476,-10.87399c3.133,-2.87302 8.003,-2.659 10.874,0.47598l90.111,98.36203c7.32201,7.99298 17.64799,12.88098 28.521,13.039c0.72301,0.01001 10.59401,0.15198 10.59401,0.15198l262.64497,0c25.37503,0 45.94699,-20.57098 45.94699,-45.94702c0.00104,-25.37595 -20.57196,-45.94595 -45.94696,-45.94595z"/>
				<path fill="#ffffff" id="svg_6" d="m765.19702,309.11099c-10.74402,-3.681 -22.43903,2.04901 -26.12299,12.79401l-87.20905,254.59l-312.06198,0c-11.35599,0 -20.56699,9.20599 -20.56699,20.56396s9.211,20.56604 20.56699,20.56604l326.50699,0c6.99402,0 13.16803,-3.50299 16.87903,-8.841c1.28296,-1.69403 2.32996,-3.60699 3.05896,-5.729l91.75201,-267.82999c3.66998,-10.73901 -2.05298,-22.435 -12.80298,-26.11401z"/>
			</g>
		</g>
		<g id="svg_7"/>
		<g id="svg_8"/>
		<g id="svg_9"/>
		<g id="svg_10"/>
		<g id="svg_11"/>
		<g id="svg_12"/>
		<g id="svg_13"/>
		<g id="svg_14"/>
		<g id="svg_15"/>
		<g id="svg_16"/>
		<g id="svg_17"/>
		<g id="svg_18"/>
		<g id="svg_19"/>
		<g id="svg_20"/>
		<g id="svg_21"/>
	</g>
</svg>
